<svg xmlns="http://www.w3.org/2000/svg" viewBox="0 0 512 512">
<defs>
 <linearGradient id="gold" x1="0" y1="0" x2="1" y2="1"><stop stop-color="#fff3a6"/><stop offset=".45" stop-color="#d59b27"/><stop offset="1" stop-color="#8a5a10"/></linearGradient>
 <linearGradient id="red" x1="0" y1="0" x2="0" y2="1"><stop stop-color="#f32d35"/><stop offset="1" stop-color="#7e0712"/></linearGradient>
 <linearGradient id="black" x1="0" y1="0" x2="0" y2="1"><stop stop-color="#242424"/><stop offset="1" stop-color="#050505"/></linearGradient>
</defs>
<path d="M256 20 470 235 405 455H107L42 235Z" fill="url(#black)" stroke="url(#gold)" stroke-width="12"/>
<path d="M256 52 425 230 256 390 87 230Z" fill="url(#red)" stroke="url(#gold)" stroke-width="7"/>
<path d="M190 188c0-55 27-88 66-88s66 33 66 88v57H190z" fill="#080808" stroke="url(#gold)" stroke-width="6"/>
<path d="M170 135c20-53 105-72 171-20l-18 39c-46-20-88-23-140 5z" fill="#050505" stroke="url(#gold)" stroke-width="6"/>
<path d="M191 125c35-24 91-29 138-5l-12 25c-41-13-83-14-126 5z" fill="#b20a18" stroke="#e5ae35" stroke-width="4"/>
<path d="M198 242 174 300l46 38 36-55 36 55 46-38-24-58z" fill="#090909" stroke="url(#gold)" stroke-width="6"/>
<path d="M238 243 256 299l18-56-18 20z" fill="url(#red)" stroke="#e5ae35" stroke-width="4"/>
<text x="256" y="387" text-anchor="middle" font-family="Arial Black,Arial,sans-serif" font-size="72" font-weight="900" letter-spacing="2" fill="url(#gold)" stroke="#120d05" stroke-width="5" paint-order="stroke">MAFIA</text>
<text x="256" y="445" text-anchor="middle" font-family="Arial Black,Arial,sans-serif" font-size="52" font-weight="900" letter-spacing="12" fill="url(#red)" stroke="url(#gold)" stroke-width="4" paint-order="stroke">UZ</text>
</svg>